<?xml version="1.0" encoding="UTF-8" standalone="no"?><!DOCTYPE svg PUBLIC "-//W3C//DTD SVG 1.1//EN" "http://www.w3.org/Graphics/SVG/1.1/DTD/svg11.dtd"><svg width="100%" height="100%" viewBox="0 0 3334 3334" version="1.1" xmlns="http://www.w3.org/2000/svg" xmlns:xlink="http://www.w3.org/1999/xlink" xml:space="preserve" xmlns:serif="http://www.serif.com/" style="fill-rule:evenodd;clip-rule:evenodd;stroke-linejoin:round;stroke-miterlimit:2;"><path d="M2913.09,1666.67c-0,-687.5 -558.906,-1246.42 -1246.42,-1246.42c-687.5,0 -1246.42,558.907 -1246.42,1246.42c0,687.5 558.907,1246.42 1246.42,1246.42c687.5,-0.025 1246.42,-558.932 1246.42,-1246.42Zm-495.606,-359.831l-888.867,888.867c-22.634,22.634 -53.456,34.434 -83.314,34.434c-30.822,0 -62.001,-11.8 -84.635,-34.434l-444.766,-444.44c-46.564,-46.564 -46.564,-122.682 0,-169.245c46.565,-46.564 121.687,-46.564 167.95,0l361.126,359.831l804.297,-804.297c46.564,-46.564 121.686,-46.564 167.949,0c46.87,47.557 46.87,122.682 0.305,169.245l-0.045,0.039Z" style="fill:#fff;fill-rule:nonzero;"/></svg>