<!DOCTYPE svg PUBLIC "-//W3C//DTD SVG 1.1//EN" "http://www.w3.org/Graphics/SVG/1.1/DTD/svg11.dtd">
<!-- Uploaded to: SVG Find, www.svgrepo.com, Transformed by: SVG Find Mixer Tools -->
<svg fill="#000000" width="800px" height="800px" version="1.1" viewBox="144 144 512 512" xmlns="http://www.w3.org/2000/svg" data-darkreader-inline-fill="" style="--darkreader-inline-fill: #060606;">
<g id="SVGRepo_bgCarrier" stroke-width="0"/>
<g id="SVGRepo_tracerCarrier" stroke-linecap="round" stroke-linejoin="round"/>
<g id="SVGRepo_iconCarrier"> <path d="m636.16 400c-0.007812-2.9102-0.82422-5.7578-2.3516-8.2305-1.5273-2.4727-3.7109-4.4766-6.3086-5.7852l-82.027-41.09 82.027-41.094c3.457-1.7695 6.1367-4.7539 7.5234-8.3789 1.3906-3.625 1.3906-7.6367 0-11.262-1.3867-3.6289-4.0664-6.6133-7.5234-8.3828l-220.42-110.21c-4.4531-2.2461-9.7109-2.2461-14.168 0l-220.42 110.21c-3.4531 1.7695-6.1328 4.7539-7.5234 8.3828-1.3867 3.625-1.3867 7.6367 0 11.262 1.3906 3.625 4.0703 6.6094 7.5234 8.3789l82.027 41.094-82.027 41.09c-3.4531 1.7734-6.1328 4.7578-7.5234 8.3828-1.3867 3.625-1.3867 7.6367 0 11.262 1.3906 3.625 4.0703 6.6133 7.5234 8.3828l82.027 41.09-82.027 41.094c-3.4531 1.7695-6.1328 4.7539-7.5234 8.3789-1.3867 3.6289-1.3867 7.6367 0 11.266 1.3906 3.625 4.0703 6.6094 7.5234 8.3789l220.42 110.21c4.457 2.2461 9.7148 2.2461 14.168 0l220.42-110.21c3.457-1.7695 6.1367-4.7539 7.5234-8.3789 1.3906-3.6289 1.3906-7.6367 0-11.266-1.3867-3.625-4.0664-6.6094-7.5234-8.3789l-82.027-41.094 82.027-41.094v0.003907c2.5977-1.3086 4.7812-3.3125 6.3086-5.7852 1.5273-2.4727 2.3438-5.3203 2.3516-8.2266zm-236.16-202.79 185.15 92.574-185.15 92.574-185.15-92.574zm185.15 312.99-185.15 92.574-185.15-92.574 74.941-37.473 103.12 51.484c4.457 2.2461 9.7148 2.2461 14.168 0l103.12-51.484zm-185.15-17.633-185.15-92.574 74.941-37.473 103.12 51.484c4.457 2.2461 9.7148 2.2461 14.168 0l103.12-51.484 74.941 37.473z"/> </g>
</svg>