<?xml version="1.0" encoding="UTF-8" standalone="no"?><!DOCTYPE svg PUBLIC "-//W3C//DTD SVG 1.1//EN" "http://www.w3.org/Graphics/SVG/1.1/DTD/svg11.dtd"><svg width="100%" height="100%" viewBox="0 0 3334 3334" version="1.1" xmlns="http://www.w3.org/2000/svg" xmlns:xlink="http://www.w3.org/1999/xlink" xml:space="preserve" xmlns:serif="http://www.serif.com/" style="fill-rule:evenodd;clip-rule:evenodd;stroke-linejoin:round;stroke-miterlimit:2;"><g id="SVGRepo_iconCarrier"><path d="M3204.17,1666.67c-0.051,-18.947 -5.366,-37.486 -15.31,-53.584c-9.944,-16.099 -24.16,-29.145 -41.072,-37.664l-534.03,-267.513l534.03,-267.539c22.507,-11.521 39.953,-30.95 48.981,-54.551c9.053,-23.6 9.053,-49.718 -0,-73.32c-9.028,-23.626 -26.474,-43.055 -48.981,-54.575l-1435.03,-717.513c-28.991,-14.623 -63.222,-14.623 -92.239,-0l-1435.03,717.513c-22.481,11.52 -39.927,30.949 -48.98,54.575c-9.028,23.6 -9.028,49.718 0,73.32c9.053,23.601 26.499,43.03 48.98,54.551l534.03,267.539l-534.03,267.513c-22.481,11.545 -39.927,30.975 -48.98,54.575c-9.028,23.6 -9.028,49.718 0,73.32c9.053,23.601 26.499,43.056 48.98,54.576l534.03,267.513l-534.03,267.539c-22.481,11.52 -39.927,30.95 -48.98,54.55c-9.028,23.626 -9.028,49.718 0,73.347c9.053,23.6 26.499,43.029 48.98,54.55l1435.03,717.513c29.016,14.623 63.247,14.623 92.239,-0l1435.03,-717.513c22.507,-11.521 39.953,-30.95 48.981,-54.55c9.053,-23.626 9.053,-49.719 -0,-73.347c-9.028,-23.6 -26.474,-43.03 -48.981,-54.55l-534.03,-267.539l534.03,-267.539l0,0.025c16.912,-8.519 31.128,-21.565 41.072,-37.664c9.943,-16.098 15.259,-34.637 15.31,-53.558l-0,-0Zm-1537.5,-1320.25l1205.4,602.696l-1205.4,602.695l-1205.4,-602.695l1205.4,-602.696Zm1205.4,2037.7l-1205.4,602.695l-1205.4,-602.695l487.897,-243.965l671.354,335.182c29.017,14.623 63.248,14.623 92.24,0l671.354,-335.182l487.962,243.965Zm-1205.4,-114.799l-1205.4,-602.695l487.897,-243.965l671.354,335.183c29.017,14.623 63.248,14.623 92.24,-0l671.354,-335.183l487.897,243.965l-1205.34,602.695Z" style="fill:#fff;fill-rule:nonzero;"/></g></svg>