<?xml version="1.0" encoding="UTF-8"?>
<!-- Uploaded to: SVG Find, www.svgrepo.com, Generator: SVG Find Mixer Tools -->
<svg fill="#000000" width="800px" height="800px" version="1.1" viewBox="144 144 512 512" xmlns="http://www.w3.org/2000/svg">
 <g fill-rule="evenodd">
  <path d="m179.58 274.05c0-28.984 23.496-52.48 52.48-52.48h335.87c28.984 0 52.48 23.496 52.48 52.48v251.9c0 28.984-23.496 52.48-52.48 52.48h-335.87c-28.984 0-52.48-23.496-52.48-52.48zm52.48-31.488c-17.391 0-31.488 14.098-31.488 31.488v251.9c0 17.391 14.098 31.488 31.488 31.488h335.87c17.391 0 31.488-14.098 31.488-31.488v-251.9c0-17.391-14.098-31.488-31.488-31.488z"/>
  <path d="m327.8 384.63c-12.297-12.297-32.234-12.297-44.531 0l-85.77 85.77-14.844-14.848 85.77-85.766c20.496-20.496 53.723-20.496 74.219 0l190.73 190.73-14.844 14.848z"/>
  <path d="m529.45 393.3c-12.66-15.195-36.035-15.09-48.559 0.21875l-62.27 76.105-16.246-13.293 62.27-76.105c20.875-25.512 59.828-25.688 80.934-0.36328l72.41 86.891-16.129 13.441z"/>
  <path d="m400 295.04c-11.594 0-20.992 9.3984-20.992 20.992s9.3984 20.992 20.992 20.992 20.992-9.3984 20.992-20.992-9.3984-20.992-20.992-20.992zm-41.984 20.992c0-23.188 18.797-41.984 41.984-41.984s41.984 18.797 41.984 41.984-18.797 41.984-41.984 41.984-41.984-18.797-41.984-41.984z"/>
 </g>
</svg>